<svg id="Layer_1" data-name="Layer 1" xmlns="http://www.w3.org/2000/svg" viewBox="0 0 517.85 372.58"><defs><style>.cls-1{fill:#f7dbe3;isolation:isolate;}.cls-2{fill:none;stroke:#fff;stroke-miterlimit:10;stroke-width:16px;}</style></defs><title>BGSLOGO</title><circle class="cls-1" cx="258.31" cy="186.29" r="186.29"/><path class="cls-2" d="M62.88,281.55c74.62,20,159.27-1.63,159.27-1.63,112-17.28,141.17-62.56,141.17-62.56,38.11-37.5,39-76.33,39-76.33S405.3,110.8,373,106.62s-54.86,34.19-54.86,34.19a61.11,61.11,0,0,0-44.46-34.76c-38-7.15-34.85,41.08-34.85,41.08s-2.55,39.23,39.26,75.38c36.46,37.22,140.62,60.8,140.62,60.8S502.15,296.25,575,258.4" transform="translate(-60.81 -11.71)"/></svg>